<svg xmlns="http://www.w3.org/2000/svg" width="128" height="128" viewBox="0 0 340.9 179.4"><path d="M.4 166.3h9v2.5H3.9v2.6H9v2.4H3.9v3h5.7v2.4H.4v-12.9zm316.6 0h9.8v2.6h-3.1v10.3h-3.5V169H317v-2.6zm-29.2 0h4.3l3.8 7.8.4 1 .6 1.8a23 23 0 0 1-.3-3.3v-7.3h3v13h-4.2l-3.9-8a10.3 10.3 0 0 1-1-2.7 30.4 30.4 0 0 1 .4 3.8v6.8h-3v-12.9zm-25 0h9v2.5h-5.5v2.6h5.2v2.4h-5.2v3h5.7v2.4H263v-12.9zm-31 0h5l2.2 7.8.2 1 .1 1.3a22.3 22.3 0 0 1 .4-2.4l2.2-7.7h5v13h-3.1v-8.7a23.7 23.7 0 0 1 .1-2.7 29.2 29.2 0 0 1-.5 2.1l-2.8 9.2h-3l-2.6-9a16.4 16.4 0 0 1-.5-2.3 107 107 0 0 1 .1 2.7v8.6h-2.9v-12.9zm-28 0h4.3l3.8 7.8.4 1 .6 1.8a23 23 0 0 1-.3-3.3v-7.3h3v13h-4.2l-3.9-8a10.8 10.8 0 0 1-.9-2.7 30.5 30.5 0 0 1 .4 3.8v6.8h-3.1v-12.9zm-20.1 0h3.4v13h-3.4v-13zm-21.7 3l-1.6 4.8h3.2l-1.6-4.9zm-2-3h4.2l4.8 13h-3.6l-1-2.8h-5l-.9 2.7h-3.4l5-12.9zm-28.2 0h9.8v2.6h-3.1v10.3H135V169h-3.2v-2.6zm-21.7 2.3v3.3h1.2c.8 0 1.3-.1 1.7-.4.4-.3.5-.7.5-1.2 0-.6-.2-1-.6-1.3-.4-.3-1-.4-2-.4h-.8zm-3.4-2.3h5.2c1.7 0 3 .3 3.8.9.8.5 1.2 1.4 1.2 2.5 0 .8-.2 1.5-.7 2-.4.6-1 1-1.8 1.1.6.3 1.2 1 1.6 2.2l1.5 4.2H114l-1.2-3.5c-.2-.6-.4-1-.7-1.2-.3-.2-.8-.3-1.5-.3h-.5v5h-3.4v-12.9zm-25.5 0h9v2.5h-5.6v2.6h5.2v2.4h-5.2v3h5.7v2.4h-9.1v-12.9zm-26 0h9.9v2.6h-3.2v10.3h-3.4V169h-3.2v-2.6zm-29.2 0h4.3l3.7 7.8.5 1 .6 1.8a23.5 23.5 0 0 1-.4-3.3v-7.3h3.1v13h-4.2l-4-8a10.4 10.4 0 0 1-.8-2.7 30.8 30.8 0 0 1 .3 3.8v6.8h-3v-12.9z" stroke="#000" stroke-width=".4"/><path d="M86.7 127s.7 3 2.5 1.9c1.7-1.2 2.4-3 4.1-3 1.7 0 9-1.3 10.7 0 1.7 1.4 1.9.3 2.7.3.9 0 3.4.4 3.4.4 2.2-.2 1.8-3.7.2-4.7-2.3-1.8-5.4-3-7.7-4.8l-.7-5.2 1.9-2.7v-8.7l-1-2.3-.4-6.6-.9-1.2V88c.6-.8 1.8-1.6 2.4-2.5.1-1.6-.6-2.7-.5-4.3-.4-2-.4-4.6-.8-6.7V67c1.7-.5 2-1.3 2.2-2 .1-1-.3-2.1-.8-4.4-.3-12-.4-24.5-.6-36.6 1-1.4 2-2.2 2-3.2 0-.9-.8-1.5-2-2.5v-2.5s2-3.9 3.5-3.9 2.6-1.1 2.6-2.3c1.4-2.8-1.6-3-1.6-3H97.7c-2.8 0-5.1-.4-7.9-.4l-3.6.1c-3 1-2.4 2.6-1.2 3.5 1.4.8 2.5 1.8 4.1 1.9 2 0 3.5.6 4.2 2.6l.5 23.1.3 17.1v17.1l.4 20.1s-.4 2.5-.9 3c-.5.7-.3 5.7-.3 5.7 1.9 1.7 1.5 1.4.1 3.7 0 5-.2 9.9-.3 14.8l-1.4 2.7s-5 3-5 5.5zM3.2 151c-2.6-.6-3-1.8-2.1-2.5.5-.5 2-.5 2.6-.8 1-.4 2-1 2.5-1.7 1-1.2.4-4 1.6-6.4 1.1-9.7 1.5-22.6.3-26.9-.6-6.7 0-28.9 0-31.7.8-1.3 1-1.4 1.1-3.8 0-1 .6-2.4 0-3.5-1-1.1-.7-5.4-.8-7.8-.1-3.6.2-3.6 1.2-6.8.3-1.3.5-2.7 0-4-.8-1.8-2 .4-2-3.4.2-9.3.6-18.6.3-27.9.1-.8 1.5-1 1.7-1.7.4-1 .5-2.3 0-3.2-.2-.5-1.7.2-2-.3-2.7-2.4-6-4-7.4-7.3-.6-1.3.3-4 1.6-4.7 2-1 5.8 0 8-.4 1.2-.2 2-.9 3.2-1C22.5 5 32.3 4 41.7 4.9c1.6.2 2 2.9 3.4 3.5 2 1 4.7.7 6.1 2.3 2.4 2.5 4 4.5 4.3 8 .4 4.2 1.1 9 1 12.2 0 2.8-.8 5.2-2 7.6a94.2 94.2 0 0 1-5.8 9.3c-1.2 1.8-3.4 3.5-3.9 5.6-.5 2.2 5 .6 6.2 2.5 1 1.8-1 4-.4 6 .6 1.8 3.7 2 4.1 3.8 1 4.8-1.2 10-.3 14.8.2 1.5 2.7 1.6 3 3.1.2 3.4.1 7 .1 10.5l.2 11.3c-.1 1.3-1.9 2.1-2 3.5-.5 3.6.8 7.7 0 11.2-.9 3.7-3.9 6.3-5 10-1 3.1-.8 7.7-2.4 9.7-2.7.8-6 2.7-8.2 4.3-3.1 2.3-5 5-6 5-1.3 1.1-3.8.4-5.3 1-1.4.5-1.5 1.6-3 1.5-1.2-.2-.8-1.1-1.7-2-.5-.4-1.5-.4-2 0-3 2.5-.8 1.9-4.3 1.6-3.5-.3-10.3.7-14.6-.1zm19.7-14.1l2.4-4.6-.7-15.1 2-2.8V99.2l-.3-7c-2.4-2-1.3-1.9.7-4.2 0-2.2.5-4 .5-6.2l-.7-5.6 1-2.9c0-2.8.4-5 .4-7.9 0-2.6 0-3.5.5-3.3.5.1 1.4 1.4 3 3l3.7 3.5c2.3 2.2 4.6 2.4 3.6 6-.8 3.3 1.6 4.3.9 7.6-.6 2.6-1.4 4.1-1.2 5.7 0 1 .5 2 1.6 3.1 1 1.1 1.2 1 .7 2.4-1 2-1.7 3.3-1.8 4.5 0 1.6.8 2.4 1.6 5.2.6 2.3.5 3.9 0 6.2l-2.1 8.3c0 2.1-.3 4.2-.4 6.3-.3 3.2-.7 3.3-2.9 5.5-2 2.1-4.6 3.9-6.6 5.7-2.1.9-3.8 1-6 1.8zM28 48c1.7 0 2.5.2 3 0s.8-.8 1.6-2.3c1-2 2.5-4.4 3.7-4.6l3.2-.6s1.1-.3.7-3c-.3-2.6-1.1-5.2-.4-6 .6-.6.8-2.7 0-3.5-.7-.9-1.3-1.7-.2-2.8 1.2-1.2 2-3-.8-2.8-2.8.4-2.7-.8-3-1.7-.4-.8-3.4-.6-5-.7-1.6.3-3 .2-2.9 1.9l-.2 10.4.3 15.7zm87.8 72.5c0 .7-1.7.7-1.6 1.4.2 1 .3 2.5 1.3 2.6 2.8.4 6.8-.7 9.6-.2 1.1.2 1.2 2.1 2.2 2.6h3.3c.8-.4.6-2 1.4-2.4 1-.6 2.3-.8 3.4-.4.6.2-.2 1.7.4 1.8 5-.2 9.5.4 14.2 0 1-.2 0-1.5.8-2 .9-.7 3 .4 3.2-.7.8-5.6-.4-11.8.1-17.4.2-1.8 2-3 2.3-4.7.1-.6.8-.6.9-1.2.2-2 .1-4.4-.4-6.4-.6-.7-2.7-1-3.4-.6-.8.5 0 2.5-.6 3.3-.2.4-1.1-.4-1.4 0-.2.4 0 1 .2 1.6 0 .3 0 .5-.2.6-1.3.7-3.2-.9-4.4 0-1.2 1 .1 2.6-.8 3.7-1.6 1.8-5 2.8-6.5 4.6-1.9 2-1.7 4.2-3.9 6-1.6 1.4-4.5 1.5-6.5 2.3-2.3 1-3.5 2.8-5.9 3.4-.7.2-1.6-1-1.4-1.8 1.8-5.9 4.2-11.8 6.2-17.7 1.2-3.8 1.8-6.2 3.2-9.9 1.4-3.9 3.3-8.6 5.6-12 .4-.7 2-.3 2.2-1 .6-2-.5-4.2 0-6.1.4-1.4 1.9-2.8 3.1-3.6.9-.6 2.2.2 2.6-.7.9-2.2 0-4.5.6-6.8.4-1.6 1.4-2.5 2.1-4 1-1.8.8-3.5 1.8-5.4.8-1.5 2.5-3.6 3-5.2.7-2.3.1-3.4.3-5.7.1-.7 1-1 1-1.6.4-7.6.8-15.2.3-22.8 0-.6-1.4-.6-1.4-1.2 0-2.3.3-4.4.2-6.5 0-.4.1-.7-.3-.7-6.3-.3-12.5-.1-18.8 0-5.2 0-10.4-.4-15.5 0-.8 0-1.5.1-2 .7-.6.5-.8 1.7-.8 2.5v11c0 .8 1.5.3 1.8 1 .7 2 .7 4.2.6 6.3 0 .7-.9 1.6-.9 2.2l1 6.3c.3.8 1 1.5 1.3 2.4.2 1-.7 3.1.4 3.2.3 0 1.6.2 2.2 0 .8-.3-.3-1.8 0-2.6.2-.6 1.3-.6 1.4-1.2.5-3.3-.4-7.2.1-10.6.2-1 .8-2 1.6-2.6.8-.4 2.1.7 2.7 0 .7-1 0-2 .4-3.1.7-1.7 1.8-3.1 3-4.3 1.2-1 2.4-2.3 4-2.5 3.6-.3 7.8 0 12.6-.2.4 0 .5.7.6 1.1.1 2.2.5 5.2 0 6.7-.9 2-2.7 4.4-4.6 6.5-1.3 1.5-2.7 2.8-3.7 4.3-1.2 1.8.6 4.2 0 6.3-.6 2-2.3 4.3-3.7 6-1 1.5-2.7 2.2-3.7 3.7-1.3 1.9-2 3.7-2.9 5.8-.6 1.7-1 3.6-1.4 5.4-.2 1.5.5 3.1-.2 4.5-.5 1-1.5.7-2.2 1.6-1 1.1-1.6 2.6-2 4-.6 1.7-.7 2.7-1.5 4.2-1 1.8-3 3.5-3.8 5.3-1 2-1 4.3-1.5 6.4l-1.3 6c-.5 2.6-1 5.1-1 7.7 0 .8.8 1.3 1.2 2 .3.6 1 1.2.8 1.8-.3.9-1.9 1-2 1.8-.2 1 0 1.8.8 2.5.5.5 1.7.3 2.2 1 .4.7.3 1.8 0 2.6-.3.6-1.4.5-1.6 1.2-.6 2.9.2 5-.4 7.9zM290.6 149c-.4-1.2.6-1.4 1.2-2 .9-1 1.8-1.9 2.2-3.7 0-.6.8-1.7 1-2.8.2-1.6-.2-3.3-.6-4.3-.6-1.4-1.5-2.1-1.2-3.4.1-.8 2-1 3.5-1.6.8-.3 1.4-1 1.7-1.6.3-.8-.8-.7-1.3-1.8-.6-1-.7-2.8-1.1-3.6-.8-1.5-2.3-3.4-2.3-5-.2-4.5 1.1-9 1.3-13.2.1-3.5 1-4.4.7-8-.1-1.8-1.1-3.2-2.1-5-.9-1.6-2-3-2.4-4.5-.7-2.6 0-5.7-.4-8.3-.1-.5-1.4-1.2-1.5-1.7-.3-3.6.1-7.3-.1-11-.1-.6-.7-.7-.7-1.4-.2-2 0-4 0-5.7 0-1.6-.3-2.9-.3-4.7 0-.6-.5-1.1-.5-1.8-.2-3.9 0-8.2 0-12.2-.1-4.2-.4-8 0-12.1 0-.7 1.4-.7 1.4-1.4-.1-3.2-.4-4.5-.3-7.7 0-.4.7-1.2.8-1.6.2-2.7.5-5.4-.2-7.6-.5-1.7-1.7-2.2-3.1-3.3-1.3-1-2.7-2.5-3.9-3.3-1.4-1.1-2.4-2-3.6-3.7-.7-1 .5-1 1.7-1 1.6-.1 3.4 0 5 .2.4.1 1.4 1 1.9 1.2 1.2.5 2-.1 3.2.2.9.3 4.7 2.3 5.8 3 1.4.8 1.8 2 3.3 2.6.3.2 4.9 1.5 5.4 1.6 1.2.3 2-.6 3.2-.3 1.5.4 4 1 5.6 1.6 1 .2 1.5 1.3 2.4 1.5 4.5.9 3.7-.6 7.3 3 1 1 2.8 1.9 3.6 3.1 1 1.8 1.2 4 2 6 .5 1.5 1.7 2.7 2 4.3.8 4.3 0 8.8.5 13.2.1 1.3 1.5 2.7 1.6 4 .6 5.2.7 10.2 0 15.3-.1 1.7-1.6 2.4-1.9 4.2-.4 2.8.5 5.8.3 8.7a9.5 9.5 0 0 1-1.6 4c-.6.9-1.8 1.2-2.2 2.1-1 2.5-.7 5.8-1.2 8.5-.2 5 0 9 .2 14 .1 3.6.5 6.8 0 10.4-.1 1.2-1.2 1.9-1.3 3-.5 3.5-.1 7-.4 10.4-.1.5-1 1.2-1 1.8-.3 3.1-.5 7.7-1.9 11.2-.9 2.3-3 4.6-5.1 6-2 1.2-4.2 1.5-6.6 2.1-1.4.4-3 .2-4.4 1-.8.3-.3.3-1 .9-.5.3-1.2.3-1.6 0-.6-.5-.4-.7-1-1-1-.5-2.4-.4-3.4 0-.7.3-.5.9-1.3 1-1.6.4-3.4.8-5.2.7-1 0-1.8.5-2.1-.5zm15-114.7c2.2-.1 2.7-.3 4.7.8s2.5 1.8 3.7 3.8l2 2c2.6 2.5 3.9 6.1 5 9.5.2 3.7 1 10.1-.9 13.5a11 11 0 0 0-1.4 4.3c-.5 4-1.6 3.4-2.7 6.4-.3.8-.3 1.8-.3 3.7l-.3 20.7a23 23 0 0 1-2.7 10.5 10 10 0 0 0-1.6 5.4c0 2.6-.5 3.8-1.5 6.2l-2 4.4c-.7 1.7-1.4 2.3-1.9 2-.5-.2-.8-1.2-.8-3l.2-25.1c0-9 .2-17.9.3-26.8-.2-2 0-2.4-1.3-3.8-.2-2.9-.7-4.2-1.6-7-1.2-2.1-1-3.7-1-6.2l-.3-18.6c0-3.8.8-2.5 4.4-2.7zM159 141.2c-.7-3.3-.2-6 0-8.6 0-.6 1.3 0 1.6-.5.5-.8 1-1.8.6-2.7-.1-.5-.5.2-.8-.3-.4-.6-.3-1.6.2-2.2.7-.9 2-.7 2.5-1.7.7-1.3-.4-3 0-4.5.2-.4 1.4.5 1.5 0 .5-2.2-.2-4.5.2-6.7 0-.6.6-.9.6-1.5.3-2.4.5-5 0-7.4-.2-1.5-1.4-2.6-1.7-4-.7-5.6-1-11.5-.2-17 .5-4.3 3.2-11 4.8-15 1-2.4 1.5-1.6 2.4-4.2a4 4 0 0 0 .2-2.4c-.3-1-1.4-1.8-1.3-2.8.2-1.2 1.7-1.2 2.1-2.4.6-1.6-.5-3.5 0-5.1.7-1.9 3-3 3.5-5 .6-1.8 0-4.7.5-6.6 1-3.6 2.3-6 4-9.3 1-2 2.9-3.7 3.7-5.8.8-2 .7-4.6 1-6.3-1.2-1.6-4.2.6-6-.1-1-.3-1-2-2-2.3-2.1-.2-4-.2-5.6.9-2 1.5-2 3.2-2.7 5.6-1.2 3.5-.3 7.4-1.8 10.8-.5 1.4-2.9 1.8-4 2.7-.6.5-.9 1-1.6 1-.8 0-1.5-.2-1.7-1-.4-1.5.1-3.1 0-4.7 0-1.2-.7-2.5-.4-3.7.2-.6 1.6-.4 1.7-1 .6-7-.3-14-.2-20.8 0-2.4.7-2 3-2H178c7.9-.1 15.8-.4 23.7-.2 1.2 0 2.7.5 2.8 1.7.1 2.4-1.4 4.7-2.5 6.8-.6 1-2 1.8-2.4 3-.7 2 .1 4.4-.7 6.3-.4 1.3-2.8 1.5-3.3 2.7-.6 1.7.5 3.8-.2 5.6-.3.8-2.1.3-2.4 1.2-1 3-.5 6.2-1.3 9.2-.4 1.7-1.7 2.8-1.9 4.5-.6 4.6.4 9.3 0 14 0 1-1.2 1.7-1.4 2.6-.7 2.3-1.1 4.8-2 7-.3 1-1.5 1.5-1.8 2.5-.4 1.4.6 3.1 0 4.5-.7 1.7-3.3 2.5-3.7 4.3-1 5.2.7 10.7-.1 16-.4 2.4-2.5 4.2-2.9 6.6-.6 3 .4 6.6-.4 9.6-.7 2.8-2.8 5.3-3.8 8.1-.3 2.7-3.5 5.2-1.8 7.3 2.2.3 5.8.7 8.3-.4 1.1-.5-.2-3 .8-3.7 3-2.3 6.6-3.2 10-5 2-1 4.4-1.9 6.2-3.2.9-.7 1-2.3 2-2.7.7-.2.8 1.4 1.5 1.5 2.3.4 4.2-.6 6.5 0 .9.2.9 1.4 1.1 2.3.2.8.6 1.7.1 2.4-.2.4-1.2 0-1.4.4-.4 1-.2 2 0 3 .2.8.9 1.3 1 2.1.3 4.2.4 8.4 0 12.5-.1 1-.6 1.8-1.5 2-6-.4-11.4 0-17.3 0-.6 0-.3-1-.8-1.3-1.6-.6-4.3-.7-6-.4-1.8.5-2 2-3.9 2.4-3.4.7-7.4 0-10.8.5-1.2.2-2.2 1.3-3.4 1.6-1.6.4-4.2.8-5-.7zM67.7 151c-2.5.9-5.5 0-8.2 0-.9 0-2.2.7-3 .5-.9-.3-2.3-2-1.7-2.8 2.1-2.8 6.3-3.2 8.3-6.2 1.1-1.7 0-4 .5-6.1.2-.6 1.3-.6 1.6-1.1.3-.5.4-1.2 0-1.6-.8-1-1.3 1-1.6-1.7a36 36 0 0 1 0-7.4c0-1.5 1.2-1.2 1.4-2 .4-1.5-.4-2.7 0-4.2.2-.7 1.4-.5 1.8-1.1.3-.6.4-1.5 0-2-.8-1.2-2.9-1.2-3-2.5-.5-2.5-.3-5.2-.2-7.7 0-2.6-.2-5.3 0-8 0-.5 1.2-.5 1.4-1 .3-.8.1-1.9 0-2.8-.1-.8.1-2.4 0-3.2 0-1.2-.5-1.6 0-2.7.4-.7 1.7-.3 1.8-1.1.6-4.4-.7-8.9-.2-13.3 0-.7 1.2-.6 1.4-1.3.3-1.2.4-2.5 0-3.6-.3-.5-1.5-.5-1.5-1.1-.5-6.4.4-12.5-.2-19 0-.5-1.5.3-1.5-2.3 0-2.7-.3-5.3-.3-7.3 0-1.5 3.4-1.6 3.4-3.1 0-2.3.3-5-.3-7.4-.1-.8-1.1-.7-1.5-1.4-.3-.7 0-1.3.3-2 .3-.8 1.3-1.4 1.5-2.2.4-1.6.4-3.4 0-5-.1-.5-1-1-1.3-1.5-.4-.9-.2-1.7-.8-2.4-.5-.6-1.7-.3-2.3-.7-1.3-1.2-2.1-2.4-3.2-3.5-1-1-2.5-1.7-3.3-3.2-.6-.9 0-2.5.9-3.2.6-.5 1.7-.3 2.4 0 .6.4.6 1.6 1.2 1.7 3 .4 5.8-.9 8.7-.2 1.2.2 1.3 1.8 2.4 2.3.8.4 2.2-.3 3 .2 1 .7 1.8 2.2 2.6 3 1.1 1 2 1.6 2.5 3 .7 2 .4 4 .4 6 0 1.7.3 3.5 0 5.3 0 .6-1.1.3-1.3.8a4 4 0 0 0 .5 3.1c.4.7 1.4.4 1.7 1 .5 1.8.6 3.9.2 5.6-.2.7-1.4.2-1.5 1-.5 8.4-.6 16.9.2 25.3.2 1.4 2.5 2 2.6 3.4.9 8 0 16-.2 24a9 9 0 0 1-1.1 3.4c-.5 1-.2 2-.2 3v4.2c.2.8 1.8 1.5 1.7 2.3-.1 2.2.2 3.2.3 5.4 0 1-1.8 1.7-2.4 2.5-.4.6-.7 1.8-.3 2.5.3.6.9.3 1 1 .3.9.4 1.7-.1 2.6-.3.5-1.5.5-1.6 1.1-.3 1.8.7 3.6.5 5.4-.1.5-1.3.4-1.4.9-.4 2.7.5 5.4 0 8-.2 1-1.7 1.5-1.8 2.6 0 .5 1.3.1 1.6.6.4.8-.7 2.5.2 2.7 2.9.9 6.4.7 9.3-.1 1.7-.4 2.4-2.7 4-2.9 2.1-.2 3.6 1.2 5.6 1.5 2.7.5 5.6.6 8.2-.1 1.5-.4 2.4-2 4-2.3 6.8-.9 13.1-.3 20-.4 6.5 0 14.9-.3 19.7.2 2.8 0-.2 9.8.8 15 .2 1.1 1.1 1.8 1.7 2.8 1 1.6 1.3 2.5-1 2.5-4.6 0-9.1.3-14 .1-1 0-.9-1.9-1.8-2.3-1-.3-2.1.5-3.1.3-1.6-.4-3.3-1.9-4.8-2-4.2-.5-8.4.5-12.6 0-.9-.2-1-2-2-2.1-9.7-.7-19 .3-28.7-.2-2-.1-2.3-.9-3.6-1.2-1.9-.6-5.2-.8-7 0-3.3 1.6-3.3 4.5-6.7 5.7zm117-38c-2.1 0-2.2-3.3-2-5.3 0-2 2.7-2 3.7-3.8.7-1.3-.3-3.6.4-4.9.9-1.3 3.2-1.3 4-2.7.5-.7-.2-2.2-.2-3.1 0-2.2.6-3.8.5-6 0-1.1-.5-3.2-.3-4.3.3-1.5 1.2-1.1 1.6-2.6.6-1.9-.4-4 .2-5.8.3-.7 2.2-.4 2-1.1-.1-1-1.8-.4-2-1.4-.5-2.7-.5-6 .3-8.8.4-1.7 2.4-3 2.9-4.7.5-1.8-.6-3.8 0-5.6.4-1.2 2.3-1.4 2.6-2.6.8-3 .1-6.5.9-9.3a9.7 9.7 0 0 1 2.1-4.2c.6-.6 1.1-1 1.4-1.9.4-1.2-.6-2.2-.3-3.5.1-1.1 1-1.8 1.5-2.8.7-1.3 1-2.9 1.7-4.1 1-1.9 2.2-3.5 3-5.4.4-1.5-.7-4 0-5.3 1-2 3.3-2 4.2-4 .8-1.6-.5-3.7.3-5.3.5-1.2 1.8-1.7 3.1-1.8 1 0 2.1.6 2.4 1.5.7 1.8.1 3.9.8 5.6 1.3 3 3.5 4.8 4.7 7.9.6 1.5 0 3.8.3 5.5.6 2.3 1 4.5 1.7 6.7 1 2.8 2.2 5.5 3 8.2.7 2.5.9 5.2 1.4 7.7.4 1.8 1.1 3.5 1.7 5.3.3.7 1.2.5 1.4 1.3.4 1.4-.7 2.9-.4 4.2.4 1.7 2.2 3.4 2.4 5 .5 2.8 0 5.3.1 8.1 0 2.5.3 4.8.7 7.3.2 1.4 1 3.6 1 4.6l.4 12c0 5.9 0 12.2-.3 18 0 .7-.8 1-1 1.7-1 2.4-1.7 3.8-2.3 6.3-.3 1.3-.3 2.8-.9 4-.3.8-2 1.4-2.2 2.2-.6 1.8.2 3.6 0 5.8 0 1.9-.9 3-1.7 4.8-.5 1.2-1.4 3-1.7 4.3-.4 1.4.3 3-.1 4.3-.3.7-1.2 1-1.4 1.8-.4 1.8.4 3.8-.2 5.5-.3 1-.5.9-1.5 1.3-.7.3-2.5.7-2.6 0-.4-3.2.5-5.3 0-8.4-.6-3.7-2.1-5.9-3-9.4-.5-1.7.3-4.9-.5-6.4-1.5-2.9-6.2-4-6-7.2.2-3.1 2-5.2 4-7.7 1.2-1.7 2-4.5 2.9-6.5.6-1.4 1-3.1 1-4.6 0-2.1-.6-3-2.2-4.4-3.4-2.7-8.8-5.3-13-7.3-.7-.3-1.4.9-1.4 1.5 0 .7.8 1.3.9 2 .2 2-1 4-.1 5.8.9 2 4.5 2.5 4 4.6-.4 1.3-.7 1.8-1.9 2.5-.7.4-1.5.4-2.3.4-2.5.1-5-.8-7.5-.2-2.6.5-4.9 1.7-7.3 3-1.6.7-3.2 1.8-5 1.7zm21.9-31.2V76l.1-5.2c0-1 1.1-2 1.2-3 .3-2-.9-4.1-.4-6 .3-.6 2 .1 2.5-.5.1-.2.4-1.4.9-2.4.3-.5.8-1 .8-1.3 0-.3 0-2.7.3-4.7.1-1.2.3-2.2.5-2.2.1 0 .3 1 1 1.8.7 1 1 1.8 1.5 2.8.4.6.8 1.3 1.4 1.6.8.3 1.7-.2 2.5.1.6.3.7 1.2 1.3 1.6.3.2 1.1-.3 1.2.2.4 2 0 4.7.4 6.7 0 .5 1.1.3 1.2.8a214.4 214.4 0 0 1 0 20c0 1-2.4 1-3.1.5-1.3-1-2-2.1-3.7-2.5-.7-.2-.7-1.3-1.4-1.5-1.4-.5-3.3-.6-4.8-.6-1 0-2.4.4-3.4.2-.2 0 0-.4 0-.6zm47.3-61l.3 6.3-.2 8 .2 9.1c0 2.4-.4 6.9-.2 8.8.2 2.5.3 3 3.8 3 1.6 0 3.9-1.8 5.5-3.5 1.2-1.2 1-3.2 1.4-4 .7-1.3 1.8-2.5 2-4 .3-2-.4-3.5.9-4.8.5-.5 1-6 1-7.2 0-1.7-1.9-4.3-4-6.6-1.4-1.6-3.1-3-3.9-4-1.3-2-2.3-3-3.9-3.3-2.9-.6-2.9-.4-2.9 2.2zm-15.3 108.5c-.5 2.1 1.1 3 3 4.3 2 1.2 4.3 2.9 6.4 4.6 3.6 3 6 8.3 8.4 13.6 1.2-1.3.3-7.2 1-10.8.1-.8 1-1.3 1-2 .3-2.9.4-5.7 0-8.4-.1-1-1.1-1.8-1.4-2.8-.2-.8-.1-1.7 0-2.5.2-1 1-1.8 1-2.8.3-2.9.5-5.8 0-8.7 0-1-1.7-1.7-1.7-2.8.1-.9 2-.8 2.1-1.7.2-2.6-.7-5-1-7.7-.7-5.8-1.1-11.6-1.7-17.4-.3-2-1.1-4.2-.7-6.3 1-2.8 2-5.7 3-8 .6-.7 1.3.7 1.8 1.3 1.7 2.2 4 4.9 4.4 7.6.6 3.3-1.2 6.3-.8 9.6.1 1 1.6.8 2 1.7a76 76 0 0 1 5.2 29.7c0 2.3 0 4.7-.7 7-1 3.1-3 5.7-3.9 8.7-1 3.3-1.4 4.2 2 4.2 1.4 0 3 0 4 .6 2.8 1.4 4 4.6 6.6 6.3l2.1 1.3c3.8 2 4.2.6 5-2.7 1-4.3 1.3-8.3 2-12.6.3-2.1.2-4.4.3-6.6.2-3.1.4-6.2.3-9.4-.1-1.5-.1-3-1-4.2-.8-.8-3 0-3.2-1-.4-1.5 1.7-2.7 1.7-4.2-.5-4-1-7.7-1.1-11.7-.1-4.8-1.1-2.4-2.7-4.2a5.8 5.8 0 0 1-1.4-3.6c-.4-4.3.2-9-.5-13.3-.3-1.9-1.1-3.7-2.4-5.2-.5-.5-1.3.3-1.6-.4-.5-1 1-1.7.5-2.7-1.5-2.3-4.4-4-6.7-5.6-.7-.4-1.9.6-2.4 0-.6-.6-.6-2.3 0-3 4-.5 6-2.4 8-4.7 2.7-3 4-6.4 5.3-10.3.6-1.8-.2-3.8 0-5.7.4-3.4 2.2-6.6 1.6-10-.8-5-3.3-9.4-6.1-13.6-1.6-2.3-4-4.3-6.5-5.5-2.1-1-3.9-.2-6.1-.8C261 6 259 4.5 256.4 4c-2.1-.4-4.3.4-6.3 0-1.3-.3-1.5-1.8-2.8-2-.9-.1-1.8 1.2-2.7 1.3-6.3.5-11.4-.7-17.6.1-1 .1-.7 1.2 0 1.7 1.2.8 3 .4 4.3 1 2.3 1 4 2.3 5.7 4.1 1.5 1.6 2 3.3 3.3 5.6.5 1 2-.9 3.2-1 1.3-.2 2.3-.3 3.2.8.7 1-.9 2.3-1.8 3.1a38.5 38.5 0 0 1-4.8 3.8c-1.1.7-3.1 1.4-4 3-1.8 3.3.4 7.1 1.1 10.9l.9 4c1 4.5.7 8.2 1.3 12.7.2 1.4 1.2 2.7 1.4 4.1.2 1.8-.1 3 .1 4.8.1.7.7 1.5 1 2.2.8 3.2 1.6 7.2 1.7 10.5.3 10.8-.3 21.4.2 32.2 0 1 1.5 1.3 1.7 2.3.4 1.5-.6 3.2-1.1 4.6-2.1 6-4.5 10.4-5.8 15.4z" fill="#0566b0" fill-rule="evenodd"/><path d="M334.6 4.2h-.3v1.6h.5l.7-.2.2-.6c0-.3 0-.5-.2-.6l-.9-.2zM335 3c.9 0 1.6.2 2 .5.6.3.8.8.8 1.4 0 .5-.1.8-.3 1.1a2 2 0 0 1-1 .7l1.4 2.9h-2.2L334.5 7h-.2v2.5h-2V2.9h2.7zm4.7 3.4a4.7 4.7 0 0 0-1.4-3.4 4.8 4.8 0 1 0 0 6.8 4.5 4.5 0 0 0 1.4-3.4zm-4.8-6a6.2 6.2 0 0 1 4.3 1.8 6 6 0 0 1 1.7 4.2 5.6 5.6 0 0 1-1.7 4.2c-.6.6-1.3 1-2 1.4a5.9 5.9 0 0 1-6.6-1.3A6 6 0 0 1 335 .3z" fill="#0566b0"/></svg>
