<?xml version="1.0" standalone="no"?><!-- Generator: Gravit.io --><svg xmlns="http://www.w3.org/2000/svg" xmlns:xlink="http://www.w3.org/1999/xlink" style="isolation:isolate" viewBox="0 0 800 800" width="800" height="800"><defs><clipPath id="_clipPath_iIZT3sAKfMuBqF5SIdgOGT3S78qYTzLq"><rect width="800" height="800"/></clipPath></defs><g clip-path="url(#_clipPath_iIZT3sAKfMuBqF5SIdgOGT3S78qYTzLq)"><g style="isolation:isolate"><path d="M 400 92 L 400 92 C 522.41 92 621.791 192.522 621.791 316.337 L 621.791 431.663 C 621.791 555.478 522.41 656 400 656 L 400 656 C 277.59 656 178.209 555.478 178.209 431.663 L 178.209 316.337 C 178.209 192.522 277.59 92 400 92 Z" style="fill:none;stroke:#3A3935;stroke-width:80;stroke-linecap:square;stroke-miterlimit:2;"/><path d="M 148.004 336.096 L 651.996 336.096 C 692.288 336.096 725 368.808 725 409.1 L 725 668.964 C 725 709.256 692.288 741.968 651.996 741.968 L 148.004 741.968 C 107.712 741.968 75 709.256 75 668.964 L 75 409.1 C 75 368.808 107.712 336.096 148.004 336.096 Z" style="stroke:none;fill:#3A3935;stroke-linecap:square;stroke-miterlimit:2;"/><path d="M 148.004 336.096 L 651.996 336.096 C 692.288 336.096 725 368.808 725 409.1 L 725 668.964 C 725 709.256 692.288 741.968 651.996 741.968 L 148.004 741.968 C 107.712 741.968 75 709.256 75 668.964 L 75 409.1 C 75 368.808 107.712 336.096 148.004 336.096 Z" style="fill:none;stroke:#3A3935;stroke-width:20;stroke-linecap:square;stroke-miterlimit:2;"/></g><path d=" M 294.988 540.236 L 294.988 540.236 Q 300.795 539.873 304.243 543.14 L 304.243 543.14 L 304.243 543.14 Q 307.691 546.406 307.691 551.124 L 307.691 551.124 L 307.691 551.124 Q 307.691 555.48 304.243 558.928 L 304.243 558.928 L 304.243 558.928 Q 300.795 562.376 294.988 562.013 L 294.988 562.013 L 251.798 560.561 L 274.663 597.218 L 274.663 597.218 Q 276.841 600.848 276.841 604.114 L 276.841 604.114 L 276.841 604.114 Q 276.841 608.47 273.393 611.555 L 273.393 611.555 L 273.393 611.555 Q 269.945 614.64 265.59 614.64 L 265.59 614.64 L 265.59 614.64 Q 259.42 614.64 255.79 608.107 L 255.79 608.107 L 235.465 569.635 L 215.14 608.47 L 215.14 608.47 Q 211.511 615.003 205.341 615.003 L 205.341 615.003 L 205.341 615.003 Q 200.986 615.003 197.356 611.736 L 197.356 611.736 L 197.356 611.736 Q 193.727 608.47 193.727 604.114 L 193.727 604.114 L 193.727 604.114 Q 193.727 600.848 195.904 597.581 L 195.904 597.581 L 219.496 560.561 L 175.58 562.013 L 175.58 562.013 Q 170.135 562.376 166.869 558.928 L 166.869 558.928 L 166.869 558.928 Q 163.602 555.48 163.602 551.124 L 163.602 551.124 L 163.602 551.124 Q 163.602 546.406 166.687 543.14 L 166.687 543.14 L 166.687 543.14 Q 169.772 539.873 175.58 540.236 L 175.58 540.236 L 219.496 541.688 L 195.904 505.03 L 195.904 505.03 Q 193.727 501.764 193.727 498.135 L 193.727 498.135 L 193.727 498.135 Q 193.727 493.779 197.356 490.513 L 197.356 490.513 L 197.356 490.513 Q 200.986 487.246 205.341 487.246 L 205.341 487.246 L 205.341 487.246 Q 211.511 487.246 215.14 493.779 L 215.14 493.779 L 235.465 532.614 L 255.79 494.142 L 255.79 494.142 Q 259.42 487.246 265.953 487.246 L 265.953 487.246 L 265.953 487.246 Q 270.308 487.246 273.574 490.331 L 273.574 490.331 L 273.574 490.331 Q 276.841 493.416 276.841 497.772 L 276.841 497.772 L 276.841 497.772 Q 276.841 501.038 274.663 505.03 L 274.663 505.03 L 251.798 541.688 L 294.988 540.236 L 294.988 540.236 Z  M 458.313 540.236 L 458.313 540.236 Q 464.12 539.873 467.568 543.14 L 467.568 543.14 L 467.568 543.14 Q 471.016 546.406 471.016 551.124 L 471.016 551.124 L 471.016 551.124 Q 471.016 555.48 467.568 558.928 L 467.568 558.928 L 467.568 558.928 Q 464.12 562.376 458.313 562.013 L 458.313 562.013 L 415.123 560.561 L 437.988 597.218 L 437.988 597.218 Q 440.166 600.848 440.166 604.114 L 440.166 604.114 L 440.166 604.114 Q 440.166 608.47 436.718 611.555 L 436.718 611.555 L 436.718 611.555 Q 433.27 614.64 428.915 614.64 L 428.915 614.64 L 428.915 614.64 Q 422.745 614.64 419.115 608.107 L 419.115 608.107 L 398.79 569.635 L 378.465 608.47 L 378.465 608.47 Q 374.836 615.003 368.666 615.003 L 368.666 615.003 L 368.666 615.003 Q 364.31 615.003 360.681 611.736 L 360.681 611.736 L 360.681 611.736 Q 357.052 608.47 357.052 604.114 L 357.052 604.114 L 357.052 604.114 Q 357.052 600.848 359.229 597.581 L 359.229 597.581 L 382.821 560.561 L 338.904 562.013 L 338.904 562.013 Q 333.46 562.376 330.194 558.928 L 330.194 558.928 L 330.194 558.928 Q 326.927 555.48 326.927 551.124 L 326.927 551.124 L 326.927 551.124 Q 326.927 546.406 330.012 543.14 L 330.012 543.14 L 330.012 543.14 Q 333.097 539.873 338.904 540.236 L 338.904 540.236 L 382.821 541.688 L 359.229 505.03 L 359.229 505.03 Q 357.052 501.764 357.052 498.135 L 357.052 498.135 L 357.052 498.135 Q 357.052 493.779 360.681 490.513 L 360.681 490.513 L 360.681 490.513 Q 364.31 487.246 368.666 487.246 L 368.666 487.246 L 368.666 487.246 Q 374.836 487.246 378.465 493.779 L 378.465 493.779 L 398.79 532.614 L 419.115 494.142 L 419.115 494.142 Q 422.745 487.246 429.277 487.246 L 429.277 487.246 L 429.277 487.246 Q 433.633 487.246 436.899 490.331 L 436.899 490.331 L 436.899 490.331 Q 440.166 493.416 440.166 497.772 L 440.166 497.772 L 440.166 497.772 Q 440.166 501.038 437.988 505.03 L 437.988 505.03 L 415.123 541.688 L 458.313 540.236 L 458.313 540.236 Z  M 621.638 540.236 L 621.638 540.236 Q 627.445 539.873 630.893 543.14 L 630.893 543.14 L 630.893 543.14 Q 634.341 546.406 634.341 551.124 L 634.341 551.124 L 634.341 551.124 Q 634.341 555.48 630.893 558.928 L 630.893 558.928 L 630.893 558.928 Q 627.445 562.376 621.638 562.013 L 621.638 562.013 L 578.448 560.561 L 601.313 597.218 L 601.313 597.218 Q 603.491 600.848 603.491 604.114 L 603.491 604.114 L 603.491 604.114 Q 603.491 608.47 600.043 611.555 L 600.043 611.555 L 600.043 611.555 Q 596.595 614.64 592.239 614.64 L 592.239 614.64 L 592.239 614.64 Q 586.069 614.64 582.44 608.107 L 582.44 608.107 L 562.115 569.635 L 541.79 608.47 L 541.79 608.47 Q 538.161 615.003 531.991 615.003 L 531.991 615.003 L 531.991 615.003 Q 527.635 615.003 524.006 611.736 L 524.006 611.736 L 524.006 611.736 Q 520.376 608.47 520.376 604.114 L 520.376 604.114 L 520.376 604.114 Q 520.376 600.848 522.554 597.581 L 522.554 597.581 L 546.146 560.561 L 502.229 562.013 L 502.229 562.013 Q 496.785 562.376 493.519 558.928 L 493.519 558.928 L 493.519 558.928 Q 490.252 555.48 490.252 551.124 L 490.252 551.124 L 490.252 551.124 Q 490.252 546.406 493.337 543.14 L 493.337 543.14 L 493.337 543.14 Q 496.422 539.873 502.229 540.236 L 502.229 540.236 L 546.146 541.688 L 522.554 505.03 L 522.554 505.03 Q 520.376 501.764 520.376 498.135 L 520.376 498.135 L 520.376 498.135 Q 520.376 493.779 524.006 490.513 L 524.006 490.513 L 524.006 490.513 Q 527.635 487.246 531.991 487.246 L 531.991 487.246 L 531.991 487.246 Q 538.161 487.246 541.79 493.779 L 541.79 493.779 L 562.115 532.614 L 582.44 494.142 L 582.44 494.142 Q 586.069 487.246 592.602 487.246 L 592.602 487.246 L 592.602 487.246 Q 596.958 487.246 600.224 490.331 L 600.224 490.331 L 600.224 490.331 Q 603.491 493.416 603.491 497.772 L 603.491 497.772 L 603.491 497.772 Q 603.491 501.038 601.313 505.03 L 601.313 505.03 L 578.448 541.688 L 621.638 540.236 L 621.638 540.236 Z " fill="rgb(255,255,255)"/></g></svg>