<svg version="1.2" baseProfile="tiny" xmlns="http://www.w3.org/2000/svg" width="200" height="200"><g fill-rule="evenodd"><path fill="#FFF" d="M3 4h192.8v192.8H3V4z"/><path fill="#ED1C24" d="M96.5 58.9l28.1 64h-18.4c0-.2-8.7-20.8-8.6-21H77.8c.2.1 19-43.2 18.7-43zM36.7 19.6h43.1c.1 0-42.8 103.3-43 103.2V19.6zM112.6 19.6h44.6v103.2c0 .4-44.6-103.2-44.6-103.2z"/><path d="M54.2 139.1l9.6 41h-7l-1.6-7.7h-8.7l-1.6 7.7h-7l9.6-41h6.7zm-.4 26.3l-3-15.3-3 15.3h6zM79.5 180l-.2-3.5H79c-1 2.8-3 4.7-5.7 4.7-6.1 0-8.7-7.2-8.7-16.1 0-7.6 2-15.9 8.8-15.9 2.5 0 3.6.9 5.3 3.2V139H85v41h-5.5zM75 155.3c-1.7 0-4 1.7-4 10 0 3.9.5 10 4 10 3.4 0 4-5.5 4-10 0-8.3-2.4-10-4-10zM89.3 165.1c0-9.1 3.2-15.9 10.5-15.9 7.2 0 10.4 6.8 10.4 16s-3.3 16-10.4 16c-7.2 0-10.5-6.8-10.5-16zm14.5 0c0-8-1.7-10-4-10-2 0-4.1 1.5-4.1 10 0 8.8 2.2 10.1 4 10.1 2.7 0 4.1-2.5 4.1-10zM120 180h-5.6v-40.9h6.2v13.6c1.3-2.9 3.7-3.5 5.3-3.5 6.5 0 8.9 6.9 8.9 15.9s-2.4 16-8.9 16c-2.7 0-4.3-1.3-5.6-4.6h-.2l-.2 3.6zm4.4-4.8c3.3 0 4-5.6 4-10 0-8.4-2.4-10-4-10-1.7 0-4 1.6-4 10 0 3.8.5 10 4 10zM158.1 171.5c-1.5 9-6.6 9.7-10 9.7-3.7 0-10.2-1.4-10.2-16 0-10.2 4.2-16 10.7-16 4.1 0 10 2.3 10 16.5v1.7h-14.3c0 7 2.4 7.8 4.1 7.8 1.4 0 3-.4 3.5-3.7h6.2zm-6-9.1c-.2-6-1.6-7.2-3.7-7.2-3.5 0-4 5-4.1 7.2h7.8zM160.3 22v-2.4h10.5V22h-3.9v10.2h-2.7V22h-4zm13.9.5v9.7h-2.7V19.6h3.6l3.5 10 3.5-10h3.6v12.6H183v-9.7l-3.5 9.7h-1.9l-3.4-9.7z"/></g></svg>
